# xmcd CD database file
#
# Track frame offsets:
#	183
#	8213
#	20180
#	48528
#	58455
#	98818
#
# Disc length: 1575 seconds
#
# Revision: 3
# Processed by: cddbd v1.5.1PL0 Copyright (c) Steve Scherf et al.
# Submitted via: CDex 1.51
#
DISCID=51062506
DTITLE=Felt - Poem Of The River
DYEAR=1900
DGENRE=
TTITLE0=Declaration
TTITLE1=Silver Plane
TTITLE2=She Lives By The Castle
TTITLE3=Stained-Glass Windows In The Sky
TTITLE4=Riding On The Equator
TTITLE5=Dark Red Birds
EXTD=
EXTT0=
EXTT1=
EXTT2=
EXTT3=\n
EXTT4=
EXTT5=
PLAYORDER=
